<svg xmlns="http://www.w3.org/2000/svg" xmlns:xlink="http://www.w3.org/1999/xlink" version="1.1" width="256" height="256" viewBox="0 0 256 256" xml:space="preserve">

<defs>
</defs>
<g style="stroke: none; stroke-width: 0; stroke-dasharray: none; stroke-linecap: butt; stroke-linejoin: miter; stroke-miterlimit: 10; fill: none; fill-rule: nonzero; opacity: 1;" transform="translate(1.4065934065934016 1.4065934065934016) scale(2.81 2.81)" >
	<path d="M 79.283 70.269 c -0.688 -0.608 -0.759 -1.64 -0.161 -2.351 c 3.959 -4.703 6.051 -10.243 6.051 -16.023 c 0 -9.753 -6.119 -18.778 -16.027 -23.807 C 64.329 17.671 52.235 10.26 38.105 10.26 c -18.35 0 -33.278 12.491 -33.278 27.845 c 0 5.78 2.093 11.321 6.051 16.023 c 0.598 0.711 0.527 1.744 -0.16 2.352 l -10.718 9.469 H 23.16 c 5.954 8.543 16.788 13.791 28.735 13.791 h 38.104 L 79.283 70.269 z M 15.375 50.342 c -3.055 -3.629 -4.67 -7.861 -4.67 -12.238 c 0 -12.112 12.291 -21.966 27.399 -21.966 s 27.399 9.854 27.399 21.966 c 0 12.111 -12.291 21.965 -27.399 21.965 H 15.406 C 17.745 57.293 17.795 53.218 15.375 50.342 z M 74.594 73.86 H 51.895 c -8.151 0 -15.847 -2.997 -21.001 -7.911 h 7.211 c 18.35 0 33.278 -12.491 33.278 -27.844 c 0 -0.563 -0.026 -1.121 -0.066 -1.676 c 5.03 4.073 7.977 9.629 7.977 15.467 c 0 4.376 -1.615 8.608 -4.67 12.238 C 72.204 67.008 72.254 71.084 74.594 73.86 z" style="stroke: none; stroke-width: 1; stroke-dasharray: none; stroke-linecap: butt; stroke-linejoin: miter; stroke-miterlimit: 10; fill: rgb(0,0,0); fill-rule: nonzero; opacity: 1;" transform=" matrix(1 0 0 1 0 0) " stroke-linecap="round" />
	<circle cx="22.839" cy="37.539" r="4.269" style="stroke: none; stroke-width: 1; stroke-dasharray: none; stroke-linecap: butt; stroke-linejoin: miter; stroke-miterlimit: 10; fill: rgb(0,0,0); fill-rule: nonzero; opacity: 1;" transform="  matrix(1 0 0 1 0 0) "/>
	<circle cx="37.799" cy="37.539" r="4.269" style="stroke: none; stroke-width: 1; stroke-dasharray: none; stroke-linecap: butt; stroke-linejoin: miter; stroke-miterlimit: 10; fill: rgb(0,0,0); fill-rule: nonzero; opacity: 1;" transform="  matrix(1 0 0 1 0 0) "/>
	<circle cx="52.769" cy="37.539" r="4.269" style="stroke: none; stroke-width: 1; stroke-dasharray: none; stroke-linecap: butt; stroke-linejoin: miter; stroke-miterlimit: 10; fill: rgb(0,0,0); fill-rule: nonzero; opacity: 1;" transform="  matrix(1 0 0 1 0 0) "/>
</g>
</svg>