<svg xmlns="http://www.w3.org/2000/svg" xmlns:xlink="http://www.w3.org/1999/xlink" version="1.1" width="256" height="256" viewBox="0 0 256 256" xml:space="preserve">

<defs>
</defs>
<g style="stroke: none; stroke-width: 0; stroke-dasharray: none; stroke-linecap: butt; stroke-linejoin: miter; stroke-miterlimit: 10; fill: none; fill-rule: nonzero; opacity: 1;" transform="translate(1.4065934065934016 1.4065934065934016) scale(2.81 2.81)" >
	<path d="M 45.63 5.643 C 45.294 2.472 42.612 0 39.352 0 s -5.943 2.472 -6.278 5.643 h -3.68 c -2.442 0 -4.422 1.98 -4.422 4.422 v 2.536 c 0 1.129 0.915 2.043 2.043 2.043 h 24.674 c 1.129 0 2.043 -0.915 2.043 -2.043 v -2.536 c 0 -2.442 -1.98 -4.422 -4.422 -4.422 H 45.63 z" style="stroke: none; stroke-width: 1; stroke-dasharray: none; stroke-linecap: butt; stroke-linejoin: miter; stroke-miterlimit: 10; fill: rgb(0,0,0); fill-rule: nonzero; opacity: 1;" transform=" matrix(1 0 0 1 0 0) " stroke-linecap="round" />
	<path d="M 79.902 49.011 c -0.847 0 -1.607 -0.487 -1.996 -1.24 c -0.078 -0.15 -0.159 -0.299 -0.244 -0.447 c -0.085 -0.148 -0.174 -0.293 -0.265 -0.435 c -0.457 -0.713 -0.499 -1.615 -0.076 -2.348 v 0 c 0.615 -1.066 0.25 -2.428 -0.815 -3.043 l -2.951 -1.704 c -1.066 -0.615 -2.428 -0.25 -3.043 0.815 l -0.001 0.001 c -0.417 0.723 -1.203 1.149 -2.037 1.108 c -0.362 -0.018 -0.726 -0.018 -1.09 0 c -0.832 0.04 -1.616 -0.387 -2.033 -1.108 l 0 -0.001 c -0.615 -1.066 -1.978 -1.431 -3.043 -0.815 l -2.951 1.704 c -1.066 0.615 -1.431 1.978 -0.815 3.043 l 0 0.001 c 0.417 0.721 0.394 1.614 -0.057 2.315 c -0.197 0.306 -0.379 0.622 -0.545 0.944 c -0.382 0.742 -1.144 1.21 -1.978 1.21 H 55.96 c -1.23 0 -2.228 0.997 -2.228 2.228 v 3.408 c 0 1.23 0.997 2.228 2.228 2.228 v 0 c 0.847 0 1.607 0.487 1.996 1.24 c 0.078 0.15 0.159 0.299 0.244 0.447 c 0.085 0.148 0.174 0.293 0.265 0.435 c 0.457 0.713 0.499 1.615 0.076 2.348 c -0.615 1.066 -0.25 2.428 0.815 3.043 l 2.951 1.704 c 1.066 0.615 2.428 0.25 3.043 -0.815 l 0.001 -0.001 c 0.417 -0.723 1.203 -1.149 2.037 -1.108 c 0.362 0.018 0.726 0.018 1.09 0 c 0.832 -0.04 1.616 0.387 2.033 1.108 l 0 0.001 c 0.615 1.066 1.978 1.431 3.043 0.815 l 2.951 -1.704 c 1.066 -0.615 1.431 -1.978 0.815 -3.043 l 0 -0.001 c -0.417 -0.721 -0.394 -1.614 0.057 -2.315 c 0.197 -0.307 0.379 -0.622 0.545 -0.944 c 0.382 -0.742 1.144 -1.21 1.978 -1.21 l 0.001 0 c 1.23 0 2.228 -0.997 2.228 -2.228 v -3.407 C 82.13 50.009 81.132 49.011 79.902 49.011 z M 70.634 57.624 c -2.585 1.493 -5.891 0.607 -7.384 -1.979 c -1.493 -2.585 -0.607 -5.891 1.979 -7.384 c 2.585 -1.493 5.891 -0.607 7.384 1.979 C 74.105 52.826 73.219 56.131 70.634 57.624 z" style="stroke: none; stroke-width: 1; stroke-dasharray: none; stroke-linecap: butt; stroke-linejoin: miter; stroke-miterlimit: 10; fill: rgb(0,0,0); fill-rule: nonzero; opacity: 1;" transform=" matrix(1 0 0 1 0 0) " stroke-linecap="round" />
	<path d="M 57.357 38.033 l 2.949 -1.703 c 2.539 -1.464 5.688 -0.936 7.625 1.098 c 0.802 -0.841 1.815 -1.407 2.901 -1.699 v -20.03 c 0 -2.115 -1.715 -3.83 -3.83 -3.83 h -9.27 v 2.776 c 0 2.209 -1.791 4 -4 4 H 24.971 c -2.209 0 -4 -1.791 -4 -4 v -2.776 h -9.27 c -2.115 0 -3.83 1.715 -3.83 3.83 V 86.17 c 0 2.115 1.715 3.83 3.83 3.83 h 55.302 c 2.115 0 3.83 -1.715 3.83 -3.83 V 70.177 c -0.001 0 -0.002 0 -0.003 -0.001 c -1.123 -0.301 -2.117 -0.895 -2.898 -1.717 c -0.779 0.821 -1.774 1.416 -2.897 1.717 c -1.608 0.431 -3.287 0.211 -4.727 -0.622 l -2.95 -1.703 c -1.44 -0.831 -2.472 -2.175 -2.902 -3.783 c -0.301 -1.123 -0.283 -2.281 0.039 -3.369 c -2.729 -0.661 -4.761 -3.124 -4.761 -6.053 v -3.407 c 0 -2.93 2.032 -5.393 4.761 -6.054 c -0.322 -1.087 -0.34 -2.245 -0.039 -3.369 C 54.885 40.209 55.916 38.865 57.357 38.033 z M 27.799 72.091 l -7.67 8.432 c -0.381 0.419 -0.919 0.654 -1.479 0.654 c -0.057 0 -0.114 -0.002 -0.171 -0.008 c -0.621 -0.053 -1.182 -0.393 -1.516 -0.918 l -3.315 -5.209 c -0.593 -0.933 -0.319 -2.168 0.613 -2.762 c 0.931 -0.594 2.168 -0.317 2.761 0.613 l 1.91 3.001 l 5.909 -6.495 c 0.743 -0.817 2.008 -0.878 2.825 -0.134 C 28.483 70.009 28.542 71.273 27.799 72.091 z M 27.799 49.571 l -7.67 8.432 c -0.381 0.419 -0.919 0.654 -1.479 0.654 c -0.057 0 -0.114 -0.002 -0.171 -0.008 c -0.621 -0.053 -1.182 -0.393 -1.516 -0.918 l -3.315 -5.209 c -0.593 -0.933 -0.319 -2.168 0.613 -2.762 c 0.931 -0.594 2.168 -0.318 2.761 0.613 l 1.91 3.001 l 5.909 -6.495 c 0.743 -0.817 2.008 -0.877 2.825 -0.134 S 28.542 48.754 27.799 49.571 z M 27.799 28.098 l -7.67 8.432 c -0.381 0.418 -0.919 0.654 -1.479 0.654 c -0.057 0 -0.114 -0.002 -0.171 -0.007 c -0.621 -0.053 -1.181 -0.393 -1.516 -0.919 l -3.315 -5.209 c -0.593 -0.932 -0.318 -2.168 0.614 -2.761 c 0.931 -0.592 2.168 -0.318 2.761 0.614 l 1.91 3.001 l 5.909 -6.496 c 0.743 -0.818 2.008 -0.877 2.825 -0.134 S 28.542 27.281 27.799 28.098 z M 59.184 73.347 c 1.104 0 2 0.896 2 2 s -0.896 2 -2 2 H 34.319 c -1.104 0 -2 -0.896 -2 -2 s 0.896 -2 2 -2 H 59.184 z M 32.319 52.827 c 0 -1.104 0.896 -2 2 -2 h 7.078 c 1.104 0 2 0.896 2 2 s -0.896 2 -2 2 h -7.078 C 33.215 54.827 32.319 53.932 32.319 52.827 z M 34.319 33.354 c -1.104 0 -2 -0.896 -2 -2 s 0.896 -2 2 -2 h 24.864 c 1.104 0 2 0.896 2 2 s -0.896 2 -2 2 H 34.319 z" style="stroke: none; stroke-width: 1; stroke-dasharray: none; stroke-linecap: butt; stroke-linejoin: miter; stroke-miterlimit: 10; fill: rgb(0,0,0); fill-rule: nonzero; opacity: 1;" transform=" matrix(1 0 0 1 0 0) " stroke-linecap="round" />
</g>
</svg>