<svg xmlns="http://www.w3.org/2000/svg" xmlns:xlink="http://www.w3.org/1999/xlink" version="1.1" width="256" height="256" viewBox="0 0 256 256" xml:space="preserve">

<defs>
</defs>
<g style="stroke: none; stroke-width: 0; stroke-dasharray: none; stroke-linecap: butt; stroke-linejoin: miter; stroke-miterlimit: 10; fill: none; fill-rule: nonzero; opacity: 1;" transform="translate(1.4065934065934016 1.4065934065934016) scale(2.81 2.81)" >
	<path d="M 45 40.961 c -2.96 0 -5.368 2.408 -5.368 5.369 v 9.006 c 0 2.96 2.408 5.368 5.368 5.368 s 5.368 -2.408 5.368 -5.368 V 46.33 C 50.368 43.37 47.96 40.961 45 40.961 z" style="stroke: none; stroke-width: 1; stroke-dasharray: none; stroke-linecap: butt; stroke-linejoin: miter; stroke-miterlimit: 10; fill: rgb(0,0,0); fill-rule: nonzero; opacity: 1;" transform=" matrix(1 0 0 1 0 0) " stroke-linecap="round" />
	<path d="M 45 0 C 20.147 0 0 20.147 0 45 c 0 24.853 20.147 45 45 45 s 45 -20.147 45 -45 C 90 20.147 69.853 0 45 0 z M 22.651 23.981 c 12.323 -12.323 32.374 -12.324 44.697 0 c 0.781 0.781 0.781 2.047 0 2.828 c -0.781 0.781 -2.047 0.781 -2.828 0 c -10.763 -10.763 -28.276 -10.764 -39.041 0 c -0.391 0.391 -0.902 0.586 -1.414 0.586 c -0.512 0 -1.024 -0.195 -1.414 -0.585 C 21.87 26.028 21.87 24.762 22.651 23.981 z M 23.181 64.704 h -5.936 c -1.104 0 -2 -0.896 -2 -2 s 0.896 -2 2 -2 h 5.936 c 2.17 0 3.936 -1.766 3.936 -3.936 s -1.766 -3.936 -3.936 -3.936 h -0.69 c -4.375 0 -7.936 -3.561 -7.936 -7.936 s 3.56 -7.936 7.936 -7.936 h 3.749 c 1.104 0 2 0.896 2 2 s -0.896 2 -2 2 h -3.749 c -2.17 0 -3.936 1.766 -3.936 3.936 c 0 2.17 1.766 3.936 3.936 3.936 h 0.69 c 4.376 0 7.936 3.56 7.936 7.936 S 27.557 64.704 23.181 64.704 z M 54.368 55.336 c 0 5.166 -4.202 9.368 -9.368 9.368 c -5.166 0 -9.368 -4.202 -9.368 -9.368 V 46.33 c 0 -5.166 4.203 -9.369 9.368 -9.369 c 5.166 0 9.368 4.203 9.368 9.369 V 55.336 z M 56.648 34.681 c -3.098 -3.097 -7.234 -4.802 -11.648 -4.802 c -4.415 0 -8.551 1.706 -11.648 4.802 c -0.78 0.781 -2.047 0.781 -2.828 0 c -0.781 -0.781 -0.781 -2.047 0 -2.828 C 34.375 28 39.517 25.879 45 25.879 c 5.482 0 10.624 2.122 14.477 5.974 c 0.781 0.781 0.781 2.047 0 2.828 c -0.391 0.391 -0.902 0.586 -1.414 0.586 S 57.039 35.072 56.648 34.681 z M 67.509 64.704 h -5.936 c -1.104 0 -2 -0.896 -2 -2 s 0.896 -2 2 -2 h 5.936 c 2.171 0 3.937 -1.766 3.937 -3.936 s -1.766 -3.936 -3.937 -3.936 h -0.689 c -4.376 0 -7.936 -3.561 -7.936 -7.936 s 3.56 -7.936 7.936 -7.936 h 3.749 c 1.104 0 2 0.896 2 2 s -0.896 2 -2 2 h -3.749 c -2.17 0 -3.936 1.766 -3.936 3.936 c 0 2.17 1.766 3.936 3.936 3.936 h 0.689 c 4.376 0 7.937 3.56 7.937 7.936 S 71.885 64.704 67.509 64.704 z" style="stroke: none; stroke-width: 1; stroke-dasharray: none; stroke-linecap: butt; stroke-linejoin: miter; stroke-miterlimit: 10; fill: rgb(0,0,0); fill-rule: nonzero; opacity: 1;" transform=" matrix(1 0 0 1 0 0) " stroke-linecap="round" />
</g>
</svg>