<svg xmlns="http://www.w3.org/2000/svg" xmlns:xlink="http://www.w3.org/1999/xlink" version="1.1" width="256" height="256" viewBox="0 0 256 256" xml:space="preserve">

<defs>
</defs>
<g style="stroke: none; stroke-width: 0; stroke-dasharray: none; stroke-linecap: butt; stroke-linejoin: miter; stroke-miterlimit: 10; fill: none; fill-rule: nonzero; opacity: 1;" transform="translate(1.4065934065934016 1.4065934065934016) scale(2.81 2.81)" >
	<path d="M 45 0 C 20.187 0 0 20.187 0 45 c 0 24.813 20.187 45 45 45 c 24.813 0 45 -20.187 45 -45 C 90 20.187 69.813 0 45 0 z M 70.291 38.331 L 58.371 49.95 l 2.813 16.406 c 0.064 0.375 -0.09 0.754 -0.397 0.978 c -0.175 0.127 -0.381 0.191 -0.588 0.191 c -0.159 0 -0.319 -0.038 -0.465 -0.115 L 45 59.665 L 30.266 67.41 c -0.336 0.178 -0.745 0.148 -1.053 -0.076 c -0.308 -0.224 -0.462 -0.603 -0.398 -0.978 l 2.814 -16.407 l -11.92 -11.618 c -0.272 -0.266 -0.371 -0.663 -0.253 -1.025 c 0.118 -0.362 0.431 -0.626 0.808 -0.681 l 16.473 -2.394 l 7.367 -14.927 c 0.337 -0.683 1.457 -0.683 1.794 0 l 7.367 14.927 l 16.473 2.394 c 0.377 0.055 0.689 0.319 0.808 0.681 C 70.661 37.668 70.563 38.065 70.291 38.331 z" style="stroke: none; stroke-width: 1; stroke-dasharray: none; stroke-linecap: butt; stroke-linejoin: miter; stroke-miterlimit: 10; fill: rgb(0,0,0); fill-rule: nonzero; opacity: 1;" transform=" matrix(1 0 0 1 0 0) " stroke-linecap="round" />
</g>
</svg>